<svg width="128" height="128" viewBox="0 0 128 128" fill="none" xmlns="http://www.w3.org/2000/svg">
<path d="M64 117.333C34.544 117.333 10.6667 93.4558 10.6667 63.9998C10.6667 34.5438 34.544 10.6665 64 10.6665C93.456 10.6665 117.333 34.5438 117.333 63.9998C117.333 93.4558 93.456 117.333 64 117.333ZM64 106.666C75.3159 106.666 86.1683 102.171 94.1699 94.1697C102.171 86.1682 106.667 75.3157 106.667 63.9998C106.667 52.6839 102.171 41.8315 94.1699 33.8299C86.1683 25.8284 75.3159 21.3332 64 21.3332C52.6841 21.3332 41.8317 25.8284 33.8301 33.8299C25.8286 41.8315 21.3333 52.6839 21.3333 63.9998C21.3333 75.3157 25.8286 86.1682 33.8301 94.1697C41.8317 102.171 52.6841 106.666 64 106.666ZM42.6667 74.6665H85.3333V85.3332H42.6667V74.6665ZM42.6667 58.6665C40.5449 58.6665 38.5101 57.8236 37.0098 56.3234C35.5095 54.8231 34.6667 52.7882 34.6667 50.6665C34.6667 48.5448 35.5095 46.5099 37.0098 45.0096C38.5101 43.5094 40.5449 42.6665 42.6667 42.6665C44.7884 42.6665 46.8232 43.5094 48.3235 45.0096C49.8238 46.5099 50.6667 48.5448 50.6667 50.6665C50.6667 52.7882 49.8238 54.8231 48.3235 56.3234C46.8232 57.8236 44.7884 58.6665 42.6667 58.6665ZM85.3333 58.6665C83.2116 58.6665 81.1768 57.8236 79.6765 56.3234C78.1762 54.8231 77.3333 52.7882 77.3333 50.6665C77.3333 48.5448 78.1762 46.5099 79.6765 45.0096C81.1768 43.5094 83.2116 42.6665 85.3333 42.6665C87.4551 42.6665 89.4899 43.5094 90.9902 45.0096C92.4905 46.5099 93.3333 48.5448 93.3333 50.6665C93.3333 52.7882 92.4905 54.8231 90.9902 56.3234C89.4899 57.8236 87.4551 58.6665 85.3333 58.6665Z" fill="#BD0000"/>
</svg>
